<svg width="100" height="100" viewBox="0 0 100 100" fill="none" xmlns="http://www.w3.org/2000/svg">
<rect width="100" height="100" fill="#0B0808"/>
<path d="M41.3824 31.884C42.1798 31.884 42.7691 31.9187 43.1504 31.988C43.5664 32.0227 44.0171 32.1787 44.5024 32.456C45.0224 32.7333 45.3864 33.2013 45.5944 33.86C45.8024 34.5187 45.9064 35.4027 45.9064 36.512C45.9064 37.6213 45.8024 38.5053 45.5944 39.164C45.3864 39.8227 45.0224 40.2907 44.5024 40.568C43.9824 40.8107 43.5144 40.9667 43.0984 41.036C42.7171 41.0707 42.1104 41.088 41.2784 41.088H25.3664V46.34H35.6104C36.4424 46.34 37.0491 46.3747 37.4304 46.444C37.8464 46.4787 38.3144 46.6347 38.8344 46.912C39.7358 47.432 40.1864 48.8013 40.1864 51.02C40.1864 53.4467 39.5278 54.8853 38.2104 55.336C37.6558 55.5093 36.7718 55.596 35.5584 55.596H25.3664V65.424C25.3664 66.256 25.3318 66.8627 25.2624 67.244C25.2278 67.6253 25.0718 68.076 24.7944 68.596C24.3091 69.532 22.9571 70 20.7384 70C18.3118 70 16.8904 69.3413 16.4744 68.024C16.2664 67.4693 16.1624 66.5853 16.1624 65.372V36.46C16.1624 34.692 16.4918 33.496 17.1504 32.872C17.8091 32.2133 19.0571 31.884 20.8944 31.884H41.3824ZM75.1678 33.496C75.5145 32.872 76.0171 32.456 76.6758 32.248C77.3345 32.04 78.1491 31.936 79.1198 31.936C80.1251 31.936 80.9225 32.0227 81.5118 32.196C82.1358 32.3693 82.5865 32.5773 82.8638 32.82C83.1758 33.0627 83.4011 33.4267 83.5398 33.912C83.7478 34.4667 83.8518 35.3507 83.8518 36.564V65.424C83.8518 66.256 83.8171 66.8627 83.7478 67.244C83.7131 67.6253 83.5571 68.076 83.2798 68.596C82.7945 69.532 81.4425 70 79.2238 70C77.8718 70 76.9358 69.896 76.4158 69.688C75.8958 69.48 75.4625 69.1507 75.1158 68.7C67.3158 58.3 62.1851 51.5053 59.7238 48.316V65.424C59.7238 66.256 59.6891 66.8627 59.6198 67.244C59.5851 67.6253 59.4291 68.076 59.1518 68.596C58.6665 69.532 57.3145 70 55.0958 70C52.9465 70 51.6291 69.532 51.1438 68.596C50.8665 68.076 50.6931 67.608 50.6238 67.192C50.5891 66.776 50.5718 66.1693 50.5718 65.372V36.356C50.5718 35.0387 50.7278 34.0853 51.0398 33.496C51.3865 32.872 51.8891 32.456 52.5478 32.248C53.2065 32.04 54.0558 31.936 55.0958 31.936C56.1358 31.936 56.9505 32.04 57.5398 32.248C58.1638 32.4213 58.5971 32.6293 58.8398 32.872C58.9785 32.976 59.3771 33.4267 60.0358 34.224C67.3505 44.1733 72.2385 50.7427 74.6998 53.932V36.356C74.6998 35.0387 74.8558 34.0853 75.1678 33.496Z" fill="#2CB978"/>
</svg>
