<svg width="68" height="39" viewBox="0 0 68 39" fill="none" xmlns="http://www.w3.org/2000/svg">
<path d="M25.3824 0.883998C26.1798 0.883998 26.7691 0.918665 27.1504 0.988C27.5664 1.02267 28.0171 1.17866 28.5024 1.456C29.0224 1.73333 29.3864 2.20133 29.5944 2.86C29.8024 3.51866 29.9064 4.40266 29.9064 5.512C29.9064 6.62133 29.8024 7.50533 29.5944 8.164C29.3864 8.82267 29.0224 9.29067 28.5024 9.568C27.9824 9.81067 27.5144 9.96667 27.0984 10.036C26.7171 10.0707 26.1104 10.088 25.2784 10.088H9.36642V15.34H19.6104C20.4424 15.34 21.0491 15.3747 21.4304 15.444C21.8464 15.4787 22.3144 15.6347 22.8344 15.912C23.7358 16.432 24.1864 17.8013 24.1864 20.02C24.1864 22.4467 23.5278 23.8853 22.2104 24.336C21.6558 24.5093 20.7718 24.596 19.5584 24.596H9.36642V34.424C9.36642 35.256 9.33175 35.8627 9.26242 36.244C9.22775 36.6253 9.07175 37.076 8.79442 37.596C8.30909 38.532 6.95709 39 4.73842 39C2.31175 39 0.89042 38.3413 0.474421 37.024C0.266421 36.4693 0.16242 35.5853 0.16242 34.372V5.46C0.16242 3.692 0.491754 2.496 1.15042 1.872C1.80909 1.21333 3.05709 0.883998 4.89442 0.883998H25.3824ZM59.1678 2.496C59.5145 1.872 60.0171 1.456 60.6758 1.248C61.3345 1.04 62.1491 0.935997 63.1198 0.935997C64.1251 0.935997 64.9225 1.02266 65.5118 1.196C66.1358 1.36933 66.5865 1.57733 66.8638 1.82C67.1758 2.06267 67.4011 2.42667 67.5398 2.912C67.7478 3.46667 67.8518 4.35067 67.8518 5.564V34.424C67.8518 35.256 67.8171 35.8627 67.7478 36.244C67.7131 36.6253 67.5571 37.076 67.2798 37.596C66.7945 38.532 65.4425 39 63.2238 39C61.8718 39 60.9358 38.896 60.4158 38.688C59.8958 38.48 59.4625 38.1507 59.1158 37.7C51.3158 27.3 46.1851 20.5053 43.7238 17.316V34.424C43.7238 35.256 43.6891 35.8627 43.6198 36.244C43.5851 36.6253 43.4291 37.076 43.1518 37.596C42.6665 38.532 41.3145 39 39.0958 39C36.9465 39 35.6291 38.532 35.1438 37.596C34.8665 37.076 34.6931 36.608 34.6238 36.192C34.5891 35.776 34.5718 35.1693 34.5718 34.372V5.356C34.5718 4.03866 34.7278 3.08533 35.0398 2.496C35.3865 1.872 35.8891 1.456 36.5478 1.248C37.2065 1.04 38.0558 0.935997 39.0958 0.935997C40.1358 0.935997 40.9505 1.04 41.5398 1.248C42.1638 1.42133 42.5971 1.62933 42.8398 1.872C42.9785 1.976 43.3771 2.42667 44.0358 3.224C51.3505 13.1733 56.2385 19.7427 58.6998 22.932V5.356C58.6998 4.03866 58.8558 3.08533 59.1678 2.496Z" fill="#2CB978"/>
</svg>
